<?xml version="1.0" standalone="no"?>
<!DOCTYPE svg PUBLIC "-//W3C//DTD SVG 20010904//EN"
 "http://www.w3.org/TR/2001/REC-SVG-20010904/DTD/svg10.dtd">
<svg version="1.0" xmlns="http://www.w3.org/2000/svg"
 width="626.000000pt" height="470.000000pt" viewBox="0 0 626.000000 470.000000"
 preserveAspectRatio="xMidYMid meet">

<g transform="translate(0.000000,470.000000) scale(0.100000,-0.100000)"
fill="#000000" stroke="none">
<path d="M5263 3997 c12 -13 24 -22 26 -20 6 4 -30 43 -40 43 -5 0 2 -10 14
-23z"/>
<path d="M2892 3684 l-2 -302 -66 -16 c-96 -24 -160 -61 -230 -130 -65 -65
-99 -125 -174 -301 -80 -191 -163 -346 -223 -417 -32 -38 -62 -81 -68 -95 -14
-38 6 -113 44 -165 35 -49 39 -108 9 -142 -9 -11 -11 -16 -4 -12 8 5 12 -1 13
-21 0 -15 4 -37 8 -48 5 -11 4 -25 -1 -32 -5 -7 -5 -14 2 -18 5 -3 10 -1 10 6
0 7 12 2 26 -12 21 -20 35 -24 81 -22 30 1 61 7 70 14 12 10 16 10 23 -1 4 -7
6 -20 3 -29 -4 -12 -3 -13 5 -3 7 11 14 8 32 -15 12 -15 23 -27 23 -25 1 2 25
-7 52 -20 40 -18 69 -23 150 -25 120 -2 113 -1 95 -14 -13 -8 -13 -9 2 -7 9 2
39 -10 67 -27 44 -26 51 -34 47 -55 -3 -14 -3 -20 0 -13 10 22 34 1 34 -28 0
-16 5 -29 10 -29 6 0 10 -13 10 -30 0 -16 5 -30 10 -30 19 0 10 -42 -10 -47
-11 -3 -20 -9 -20 -15 0 -5 9 -4 21 2 29 16 45 7 59 -35 10 -31 10 -39 -1 -47
-10 -7 -9 -8 6 -4 11 3 41 8 68 12 47 6 54 12 38 30 -5 5 -14 26 -21 48 -10
32 -10 40 1 47 10 6 11 9 2 9 -7 0 -13 9 -13 20 0 11 -4 20 -10 20 -5 0 -10 9
-10 20 0 11 -4 20 -10 20 -5 0 -10 5 -10 11 0 7 15 10 39 7 22 -2 37 1 34 5
-3 5 10 6 28 2 19 -3 29 -3 22 2 -8 6 -1 15 23 31 19 12 34 18 34 13 0 -6 -8
-15 -17 -20 -10 -6 -13 -11 -6 -11 6 0 20 12 31 28 20 27 22 32 22 53 0 5 5 7
12 3 6 -4 8 -3 5 3 -3 5 0 27 8 49 8 21 14 67 15 102 0 57 11 79 24 50 3 -7 4
-5 3 6 -3 29 71 48 165 42 88 -5 173 -38 225 -88 30 -29 34 -30 63 -18 41 17
88 72 95 113 7 36 -24 125 -51 148 -12 9 -9 17 16 45 35 40 52 98 44 145 -6
31 -28 78 -69 149 -8 14 -36 84 -61 155 -85 241 -198 451 -297 549 -83 83
-118 93 -252 76 -5 -1 -41 5 -80 14 -38 9 -103 16 -142 16 l-73 0 -3 303 -2
302 -3 -301z m525 -834 c24 -30 56 -80 71 -110 25 -52 27 -63 27 -195 0 -110
-4 -152 -19 -195 -48 -143 -139 -220 -258 -220 -30 0 -38 -4 -38 -19 0 -10 -3
-47 -7 -82 l-6 -64 37 33 c20 17 41 32 46 32 28 0 -3 -183 -35 -210 -18 -15
-20 -34 -2 -24 7 4 9 3 4 -2 -5 -5 -11 -8 -13 -6 -2 1 -23 -8 -47 -22 -54 -31
-157 -40 -157 -13 -1 35 -16 39 -64 19 -44 -20 -46 -20 -56 -3 -5 11 -29 30
-52 45 -79 48 -79 47 -63 94 17 48 8 115 -25 189 -26 58 -26 57 11 142 36 81
50 87 95 40 16 -17 43 -40 59 -52 17 -11 3 5 -30 36 -56 52 -63 56 -110 57
-130 2 -216 106 -169 205 37 78 126 99 189 44 28 -25 38 -29 49 -20 19 16 36
120 36 218 l0 80 69 7 c137 12 242 61 277 127 l15 30 61 -53 c34 -29 81 -78
105 -108z"/>
<path d="M3045 2751 c-37 -22 -72 -61 -57 -61 7 0 12 5 12 10 0 18 64 50 101
50 27 0 45 -8 69 -30 36 -34 42 -36 34 -15 -8 20 -85 65 -110 65 -10 0 -32 -8
-49 -19z"/>
<path d="M3380 2724 c-17 -15 -29 -29 -26 -31 3 -3 19 6 36 21 39 33 55 33 76
1 9 -14 19 -23 22 -21 2 3 -3 17 -12 31 -21 33 -56 32 -96 -1z"/>
<path d="M3132 2608 c-17 -17 -15 -63 4 -79 22 -18 48 0 52 35 6 45 -29 71
-56 44z"/>
<path d="M3392 2608 c-17 -17 -15 -63 4 -79 22 -18 48 0 52 35 6 45 -29 71
-56 44z"/>
<path d="M2679 2503 l-24 -28 25 22 c14 11 34 23 45 26 19 5 19 5 -1 6 -11 0
-31 -11 -45 -26z"/>
<path d="M3340 2505 c0 -5 5 -17 10 -25 5 -8 10 -10 10 -5 0 6 -5 17 -10 25
-5 8 -10 11 -10 5z"/>
<path d="M2740 2450 c-6 -11 -8 -20 -6 -20 3 0 10 9 16 20 6 11 8 20 6 20 -3
0 -10 -9 -16 -20z"/>
<path d="M3359 2413 c-13 -16 -12 -17 4 -4 16 13 21 21 13 21 -2 0 -10 -8 -17
-17z"/>
<path d="M2801 2404 c0 -11 3 -14 6 -6 3 7 2 16 -1 19 -3 4 -6 -2 -5 -13z"/>
<path d="M3111 2354 c0 -11 3 -14 6 -6 3 7 2 16 -1 19 -3 4 -6 -2 -5 -13z"/>
<path d="M3132 2314 c10 -10 20 -16 22 -13 3 3 -5 11 -17 18 -21 13 -21 12 -5
-5z"/>
<path d="M3188 2293 c12 -2 30 -2 40 0 9 3 -1 5 -23 4 -22 0 -30 -2 -17 -4z"/>
<path d="M2960 2205 c0 -7 81 -47 86 -43 2 3 -17 14 -41 26 -25 12 -45 20 -45
17z"/>
<path d="M3314 3706 c-3 -8 -4 -25 -2 -38 3 -23 4 -23 162 -26 172 -3 189 2
184 47 l-3 26 -168 3 c-139 2 -168 0 -173 -12z"/>
<path d="M3774 3706 c-3 -8 -4 -25 -2 -38 3 -23 5 -23 153 -26 188 -3 197 -1
193 41 l-3 32 -168 3 c-139 2 -168 0 -173 -12z"/>
<path d="M4242 3683 l3 -38 310 0 310 0 3 38 3 37 -316 0 -316 0 3 -37z"/>
<path d="M5168 3703 c-21 -5 -32 -36 -23 -63 8 -26 43 -26 71 1 28 26 108 35
176 18 46 -11 50 -13 33 -25 -10 -7 -44 -16 -76 -20 -40 -4 -59 -11 -59 -20 0
-17 6 -17 86 -3 65 11 99 35 88 62 -12 31 -130 55 -199 39 -27 -6 -46 -5 -60
3 -11 7 -28 10 -37 8z"/>
<path d="M1069 3501 l-29 -29 2 -279 2 -278 6 285 c3 157 7 286 8 288 1 2 7 0
14 -4 6 -4 8 -3 4 4 -3 6 -1 14 6 19 7 4 162 10 343 13 l330 6 -328 2 -329 2
-29 -29z"/>
<path d="M1779 3496 c20 -28 21 -40 21 -332 l0 -304 -332 -3 -333 -2 338 -3
337 -2 0 309 0 310 -26 28 -26 28 21 -29z"/>
<path d="M1461 3236 c-58 -58 -108 -103 -113 -100 -5 3 -5 11 -2 17 4 7 3 9
-1 4 -11 -9 -46 23 -39 35 3 4 2 8 -3 7 -4 -1 -16 1 -26 6 -11 5 -23 3 -30 -4
-9 -9 -8 -11 6 -5 14 5 30 -4 61 -35 l42 -41 109 110 c60 61 107 110 105 110
-3 0 -52 -47 -109 -104z"/>
<path d="M1606 3327 c3 -10 9 -15 12 -12 3 3 0 11 -7 18 -10 9 -11 8 -5 -6z"/>
<path d="M1490 3175 c-69 -69 -129 -125 -135 -125 -5 0 -34 24 -64 53 -31 28
-48 43 -38 31 9 -11 14 -24 10 -29 -5 -4 -3 -5 3 -2 11 6 68 -45 60 -54 -3 -3
5 -6 17 -7 17 -1 56 32 152 128 71 72 127 130 125 130 -3 0 -61 -56 -130 -125z"/>
<path d="M4755 3230 c-3 -6 1 -7 9 -4 18 7 21 14 7 14 -6 0 -13 -4 -16 -10z"/>
<path d="M4951 3176 c-45 -36 -85 -66 -88 -66 -3 0 -21 9 -39 21 -25 15 -34
17 -34 7 0 -12 61 -58 76 -58 3 0 28 18 55 41 27 22 49 39 49 36 0 -2 16 11
36 29 67 64 29 56 -55 -10z"/>
<path d="M5158 3179 c-24 -14 -23 -56 2 -69 22 -12 55 0 62 22 7 19 146 23
188 5 l35 -15 -25 -10 c-14 -5 -49 -13 -77 -17 -35 -4 -53 -12 -53 -20 0 -11
12 -13 53 -8 69 7 122 32 122 58 0 34 -49 50 -157 50 -53 0 -100 3 -104 8 -10
10 -25 8 -46 -4z"/>
<path d="M1072 2883 c12 -12 29 -23 37 -23 10 0 7 5 -9 13 -14 8 -24 18 -23
24 1 5 -5 10 -13 10 -10 0 -9 -7 8 -24z"/>
<path d="M5150 2655 c-7 -8 -10 -25 -6 -40 8 -32 53 -35 79 -5 14 17 29 20 91
20 41 0 87 -5 103 -11 l28 -11 -31 -14 c-17 -7 -52 -14 -78 -15 -35 -2 -46 -7
-46 -19 0 -15 8 -16 68 -8 106 14 141 49 85 85 -21 14 -49 18 -130 19 -56 0
-106 3 -109 7 -12 12 -41 8 -54 -8z"/>
<path d="M4951 2553 l-84 -66 -34 18 c-41 22 -57 11 -23 -16 45 -34 57 -33
110 11 28 23 50 40 50 37 0 -3 16 10 36 28 69 63 29 54 -55 -12z"/>
<path d="M5151 2136 c-8 -9 -11 -26 -7 -41 8 -33 57 -35 78 -3 13 19 23 22 89
21 41 0 88 -6 104 -12 27 -11 28 -13 12 -23 -11 -5 -45 -12 -78 -15 -43 -4
-59 -10 -59 -21 0 -12 11 -14 60 -9 115 12 152 54 80 89 -32 16 -76 20 -195
17 -11 0 -32 3 -46 6 -17 5 -29 2 -38 -9z"/>
<path d="M2085 2040 l-39 -40 -121 0 c-72 0 -146 -6 -184 -15 -179 -43 -307
-189 -331 -380 -30 -235 -21 -696 19 -968 9 -65 15 -120 12 -122 -2 -3 -200
-5 -439 -5 -480 0 -483 0 -521 -64 -44 -74 -35 -121 32 -160 258 -152 1186
-240 2512 -240 625 0 890 8 1345 40 705 49 1161 142 1205 246 34 81 -45 178
-145 178 l-40 0 0 203 c0 148 -3 208 -13 221 -11 15 -41 17 -361 16 -192 0
-352 -3 -357 -6 -5 -3 -9 -50 -9 -104 l0 -99 -82 -3 -83 -3 -5 -110 -5 -110
-370 0 -370 0 -9 63 c-5 37 -5 66 0 71 5 4 73 5 152 3 123 -3 142 -6 143 -20
1 -10 4 -1 8 18 6 32 3 37 -29 55 -37 22 -50 56 -30 80 8 10 5 19 -15 39 -32
32 -32 51 3 84 l27 27 -22 22 c-30 29 -29 44 3 77 15 14 22 26 16 26 -16 0
-43 56 -36 73 11 29 61 40 142 33 42 -4 95 -7 117 -6 53 1 72 20 21 20 -31 0
-36 3 -32 18 2 9 10 36 17 60 11 39 15 42 46 42 18 0 33 5 33 10 0 6 -14 10
-31 10 -29 0 -30 1 -24 33 15 68 22 77 60 77 19 0 35 5 35 10 0 6 -15 10 -34
10 -34 0 -35 0 -25 32 5 18 9 34 9 35 0 2 -142 3 -315 3 l-314 0 -11 -42 c-6
-24 -31 -115 -55 -203 -24 -88 -66 -248 -95 -355 -28 -107 -53 -201 -56 -208
-2 -6 -20 -13 -41 -14 -37 -1 -37 -1 -5 -5 25 -3 32 -9 31 -26 0 -21 -1 -21
-9 -2 -8 19 -9 19 -9 -2 -1 -23 0 -23 138 -23 102 0 141 -3 144 -12 4 -10 8
-9 16 2 9 13 11 12 11 -6 0 -12 3 -36 6 -53 l7 -31 -507 0 c-278 0 -506 3
-506 6 0 3 23 47 51 97 27 51 44 85 36 77 -8 -8 -35 -54 -61 -102 l-47 -87
513 -1 c281 0 513 -2 515 -4 4 -4 -1662 -16 -1872 -13 l-170 2 2 180 c1 134 6
202 20 265 l19 85 -35 64 c-32 59 -34 67 -23 105 6 23 19 61 29 85 l19 43 54
-83 c94 -144 285 -320 428 -393 18 -10 39 -15 45 -12 8 3 8 5 -1 5 -7 1 -10 6
-6 12 4 7 1 10 -7 7 -15 -6 -113 42 -104 50 2 3 11 -1 20 -8 9 -7 18 -11 20
-8 8 8 -75 57 -89 52 -12 -5 -31 10 -38 31 -1 5 -7 9 -12 7 -11 -4 -37 18 -31
28 2 3 -15 24 -38 46 -23 21 -31 27 -18 12 14 -16 20 -28 14 -28 -5 0 -35 30
-66 67 -47 56 -54 69 -44 82 11 14 10 14 -5 2 -18 -13 -20 -12 -22 19 -1 8 -7
14 -14 13 -7 -2 -10 8 -8 26 3 24 0 29 -15 26 -13 -3 -24 6 -34 25 -15 28 -14
34 14 102 64 162 95 233 103 236 4 2 8 10 8 18 0 9 5 12 12 8 6 -4 8 -3 5 4
-9 14 3 43 14 36 5 -3 6 3 2 12 -5 13 -3 15 7 9 8 -5 11 -4 6 3 -3 6 2 26 12
44 60 105 93 156 118 183 63 68 96 105 92 105 -2 0 -22 -18 -43 -40z m-311
-766 c3 -8 2 -12 -4 -9 -6 3 -10 10 -10 16 0 14 7 11 14 -7z m197 -231 c13
-16 12 -17 -3 -4 -17 13 -22 21 -14 21 2 0 10 -8 17 -17z m130 -100 c13 -15
12 -15 -8 -4 -24 12 -29 21 -14 21 5 0 15 -7 22 -17z m2993 -39 c3 -9 6 -49 6
-90 l0 -74 -220 0 -220 0 0 90 0 90 214 0 c186 0 215 -2 220 -16z m-5 -208 c8
-9 11 -45 9 -98 l-3 -83 -297 -3 -298 -2 0 93 c0 52 3 97 7 100 3 4 133 7 288
7 230 0 285 -3 294 -14z"/>
<path d="M2160 2077 c0 -15 24 -67 30 -67 11 0 -8 58 -21 66 -5 3 -9 3 -9 1z"/>
<path d="M715 1944 c-15 -30 -34 -91 -43 -135 -14 -74 -14 -88 1 -172 21 -116
71 -221 143 -295 62 -64 67 -63 111 27 26 52 28 65 28 181 0 101 -4 138 -22
195 -29 92 -90 185 -146 224 l-45 31 -27 -56z"/>
<path d="M2431 1914 c0 -11 3 -14 6 -6 3 7 2 16 -1 19 -3 4 -6 -2 -5 -13z"/>
<path d="M3760 1923 c0 -6 5 -15 10 -18 6 -4 8 -15 5 -26 -4 -10 1 -29 9 -41
15 -21 16 -21 16 -3 0 18 0 18 15 -1 15 -17 15 -16 1 11 -23 45 -56 92 -56 78z
m40 -64 c0 -6 -4 -7 -10 -4 -5 3 -10 11 -10 16 0 6 5 7 10 4 6 -3 10 -11 10
-16z"/>
<path d="M3557 1820 c-4 -14 -3 -76 1 -139 5 -62 7 -125 5 -140 l-3 -26 11 25
c12 27 12 147 0 245 -6 47 -9 55 -14 35z"/>
<path d="M3841 1798 c-1 -12 61 -149 66 -145 2 2 -12 37 -31 78 -19 41 -35 71
-35 67z"/>
<path d="M2440 1638 c0 -164 -18 -360 -46 -491 -21 -102 -30 -127 -55 -152
-16 -17 -29 -35 -29 -39 0 -5 19 13 42 40 24 27 72 81 108 119 l64 70 -62 -60
c-34 -33 -62 -56 -62 -53 0 4 7 35 15 70 37 159 62 598 35 598 -6 0 -10 -41
-10 -102z"/>
<path d="M2474 1605 c0 -49 1 -71 3 -48 2 23 2 64 0 90 -2 26 -3 8 -3 -42z"/>
<path d="M3591 1644 c0 -11 3 -14 6 -6 3 7 2 16 -1 19 -3 4 -6 -2 -5 -13z"/>
<path d="M3911 1640 c-1 -3 3 -20 8 -38 l10 -33 -117 7 c-64 4 -115 4 -112 2
3 -3 58 -9 123 -12 94 -6 117 -5 117 6 -1 13 -28 77 -29 68z"/>
<path d="M5145 1610 c-17 -54 28 -79 71 -39 14 13 40 22 73 26 53 5 151 -12
151 -27 0 -10 -80 -30 -119 -30 -22 0 -31 -5 -31 -16 0 -14 8 -16 56 -10 68 8
124 30 124 49 0 43 -120 77 -204 59 -27 -5 -49 -6 -52 -1 -3 5 -18 9 -34 9
-20 0 -31 -6 -35 -20z"/>
<path d="M3139 1608 c8 -10 10 -26 6 -40 -7 -21 -7 -21 10 -4 17 17 17 18 -5
39 -13 12 -18 14 -11 5z"/>
<path d="M3618 1583 c12 -2 32 -2 45 0 12 2 2 4 -23 4 -25 0 -35 -2 -22 -4z"/>
<path d="M2890 1530 c-6 -11 -8 -20 -6 -20 3 0 10 9 16 20 6 11 8 20 6 20 -3
0 -10 -9 -16 -20z"/>
<path d="M3165 1520 c-23 -5 -3 -6 50 -3 50 3 92 7 94 9 7 7 -102 2 -144 -6z"/>
<path d="M3343 1504 c28 -15 37 -50 17 -70 -7 -7 -6 -11 3 -11 8 0 14 13 15
33 2 24 -3 37 -20 48 -12 9 -27 16 -33 16 -5 -1 2 -8 18 -16z"/>
<path d="M2849 1483 c-13 -16 -12 -17 4 -4 9 7 17 15 17 17 0 8 -8 3 -21 -13z"/>
<path d="M3547 1493 c-4 -3 -7 -15 -7 -25 0 -11 -4 -16 -10 -13 -5 3 -7 0 -4
-8 3 -8 -7 -58 -21 -112 -15 -53 -24 -99 -21 -103 3 -3 6 -1 6 4 0 5 16 66 34
137 19 70 33 127 32 127 -2 0 -6 -3 -9 -7z"/>
<path d="M2948 1463 c7 -3 16 -2 19 1 4 3 -2 6 -13 5 -11 0 -14 -3 -6 -6z"/>
<path d="M2809 1443 c-13 -15 -12 -15 9 -4 23 12 28 21 13 21 -5 0 -15 -7 -22
-17z"/>
<path d="M2729 1381 c-79 -64 -169 -147 -169 -157 0 -4 26 17 58 48 31 30 83
76 115 102 32 25 54 46 50 46 -4 -1 -29 -18 -54 -39z"/>
<path d="M3330 1402 c0 -4 9 -13 20 -20 19 -12 20 -11 8 8 -13 20 -28 27 -28
12z"/>
<path d="M3273 1393 c9 -2 25 -2 35 0 9 3 1 5 -18 5 -19 0 -27 -2 -17 -5z"/>
<path d="M543 1318 c11 -123 66 -238 136 -285 32 -22 44 -23 198 -23 183 0
201 5 240 64 29 45 43 100 43 173 l0 62 -27 -9 c-61 -18 -124 -47 -167 -77
-43 -30 -86 -94 -86 -128 0 -8 -4 -15 -10 -15 -5 0 -10 8 -10 18 0 35 -51 124
-98 171 -48 48 -134 96 -193 108 l-32 6 6 -65z"/>
<path d="M3463 1315 c0 -22 2 -30 4 -17 2 12 2 30 0 40 -3 9 -5 -1 -4 -23z"/>
<path d="M3356 1303 c-18 -24 -18 -25 3 -47 29 -30 27 -70 -4 -94 -21 -17 -23
-21 -10 -32 34 -29 7 -71 -62 -96 -21 -7 -30 -13 -20 -14 20 0 74 26 94 46 14
14 15 76 1 68 -4 -3 -8 0 -8 5 0 6 9 16 20 23 27 17 26 65 -2 95 -21 22 -21
23 -3 43 10 11 16 22 14 24 -2 2 -12 -7 -23 -21z"/>
<path d="M3258 1273 c6 -2 18 -2 25 0 6 3 1 5 -13 5 -14 0 -19 -2 -12 -5z"/>
<path d="M2530 1205 c-11 -13 -10 -14 4 -9 9 3 16 10 16 15 0 13 -6 11 -20 -6z"/>
<path d="M3471 1204 c0 -11 3 -14 6 -6 3 7 2 16 -1 19 -3 4 -6 -2 -5 -13z"/>
<path d="M2901 1194 c0 -11 3 -14 6 -6 3 7 2 16 -1 19 -3 4 -6 -2 -5 -13z"/>
<path d="M3436 1079 c-15 -56 -25 -103 -23 -105 2 -3 16 41 31 97 15 55 26
103 23 105 -2 2 -16 -41 -31 -97z"/>
<path d="M2911 1150 c0 -8 4 -22 9 -30 12 -18 12 -2 0 25 -6 13 -9 15 -9 5z"/>
<path d="M3283 1143 c9 -2 23 -2 30 0 6 3 -1 5 -18 5 -16 0 -22 -2 -12 -5z"/>
<path d="M5158 1109 c-32 -18 -17 -79 20 -79 8 0 27 11 44 25 25 21 40 25 92
25 35 0 78 -5 96 -12 30 -10 32 -12 15 -24 -10 -7 -44 -16 -76 -20 -39 -4 -59
-11 -59 -20 0 -17 92 -8 140 15 88 41 26 84 -125 86 -55 1 -107 5 -115 8 -8 4
-23 2 -32 -4z"/>
<path d="M2945 1080 c10 -11 20 -20 23 -20 3 0 -3 9 -13 20 -10 11 -20 20 -23
20 -3 0 3 -9 13 -20z"/>
<path d="M3000 1032 c23 -10 70 -16 140 -18 l105 -2 -105 8 c-58 4 -118 13
-133 19 -42 16 -47 12 -7 -7z"/>
<path d="M4038 1043 c7 -3 16 -2 19 1 4 3 -2 6 -13 5 -11 0 -14 -3 -6 -6z"/>
<path d="M4098 1033 c6 -2 18 -2 25 0 6 3 1 5 -13 5 -14 0 -19 -2 -12 -5z"/>
<path d="M2944 998 c-9 -18 -32 -62 -51 -98 -34 -64 -26 -63 11 2 28 47 66
128 61 128 -3 0 -12 -15 -21 -32z"/>
<path d="M3394 967 c3 -11 -1 -46 -10 -79 -8 -33 -13 -62 -11 -64 2 -3 12 25
21 61 12 49 14 70 5 83 -10 15 -10 15 -5 -1z"/>
<path d="M2255 950 c-3 -5 1 -10 10 -10 9 0 13 5 10 10 -3 6 -8 10 -10 10 -2
0 -7 -4 -10 -10z"/>
<path d="M2264 903 c-23 -31 -24 -34 -5 -18 22 19 46 55 38 55 -3 0 -17 -17
-33 -37z"/>
<path d="M4058 923 c6 -2 18 -2 25 0 6 3 1 5 -13 5 -14 0 -19 -2 -12 -5z"/>
<path d="M773 853 c59 -2 154 -2 210 0 56 1 8 3 -108 3 -116 0 -161 -2 -102
-3z"/>
<path d="M2825 779 c-9 -17 -15 -33 -13 -35 3 -2 12 12 21 31 21 43 13 47 -8
4z"/>
<path d="M3350 760 c-7 -28 -10 -53 -8 -55 3 -3 10 18 16 47 7 28 11 53 8 55
-2 2 -9 -19 -16 -47z"/>
<path d="M4018 793 c6 -2 18 -2 25 0 6 3 1 5 -13 5 -14 0 -19 -2 -12 -5z"/>
<path d="M4088 783 c7 -3 16 -2 19 1 4 3 -2 6 -13 5 -11 0 -14 -3 -6 -6z"/>
<path d="M2124 708 l-19 -23 23 19 c21 18 27 26 19 26 -2 0 -12 -10 -23 -22z"/>
<path d="M2089 663 c-29 -35 -41 -53 -36 -53 2 0 17 16 31 35 28 36 31 49 5
18z"/>
<path d="M4070 675 c0 -7 81 -47 86 -43 2 3 -17 14 -41 26 -25 12 -45 20 -45
17z"/>
<path d="M2033 588 c-15 -20 -25 -38 -20 -38 3 0 12 11 21 25 17 26 16 35 -1
13z"/>
</g>
</svg>
