<svg width="77" height="28" viewBox="0 0 77 28" fill="none" xmlns="http://www.w3.org/2000/svg">
<path d="M4 5.25C4 3.45508 5.45507 2 7.25 2H20.75C22.5449 2 24 3.45507 24 5.25V17.3787C23.8796 17.4592 23.7653 17.5527 23.659 17.659L22.5 18.818V5.25C22.5 4.2835 21.7165 3.5 20.75 3.5H7.25C6.2835 3.5 5.5 4.2835 5.5 5.25V22.7497C5.5 23.7162 6.2835 24.4997 7.25 24.4997H15.3177L16.8177 25.9997H7.25C5.45507 25.9997 4 24.5446 4 22.7497V5.25Z" fill="#272424"/>
<path d="M10.5 8.75C10.5 9.44036 9.94036 10 9.25 10C8.55964 10 8 9.44036 8 8.75C8 8.05964 8.55964 7.5 9.25 7.5C9.94036 7.5 10.5 8.05964 10.5 8.75Z" fill="#272424"/>
<path d="M9.25 15.2498C9.94036 15.2498 10.5 14.6902 10.5 13.9998C10.5 13.3095 9.94036 12.7498 9.25 12.7498C8.55964 12.7498 8 13.3095 8 13.9998C8 14.6902 8.55964 15.2498 9.25 15.2498Z" fill="#272424"/>
<path d="M9.25 20.5C9.94036 20.5 10.5 19.9404 10.5 19.25C10.5 18.5596 9.94036 18 9.25 18C8.55964 18 8 18.5596 8 19.25C8 19.9404 8.55964 20.5 9.25 20.5Z" fill="#272424"/>
<path d="M12.75 8C12.3358 8 12 8.33579 12 8.75C12 9.16421 12.3358 9.5 12.75 9.5H19.25C19.6642 9.5 20 9.16421 20 8.75C20 8.33579 19.6642 8 19.25 8H12.75Z" fill="#272424"/>
<path d="M12 13.9998C12 13.5856 12.3358 13.2498 12.75 13.2498H19.25C19.6642 13.2498 20 13.5856 20 13.9998C20 14.414 19.6642 14.7498 19.25 14.7498H12.75C12.3358 14.7498 12 14.414 12 13.9998Z" fill="#272424"/>
<path d="M12.75 18.5C12.3358 18.5 12 18.8358 12 19.25C12 19.6642 12.3358 20 12.75 20H19.25C19.6642 20 20 19.6642 20 19.25C20 18.8358 19.6642 18.5 19.25 18.5H12.75Z" fill="#272424"/>
<path d="M25.7803 19.7803L19.7803 25.7803C19.6397 25.921 19.4489 26 19.25 26C19.0511 26 18.8603 25.921 18.7197 25.7803L15.7216 22.7823C15.4287 22.4894 15.4287 22.0145 15.7216 21.7216C16.0145 21.4287 16.4894 21.4287 16.7823 21.7216L19.25 24.1893L24.7197 18.7197C25.0126 18.4268 25.4874 18.4268 25.7803 18.7197C26.0732 19.0126 26.0732 19.4874 25.7803 19.7803Z" fill="#272424"/>
<path d="M31.588 16.132C31.036 16.132 30.572 16.04 30.196 15.856C29.828 15.672 29.552 15.404 29.368 15.052C29.192 14.7 29.104 14.256 29.104 13.72V11.464H28.6C28.376 11.464 28.2 11.404 28.072 11.284C27.952 11.164 27.892 11 27.892 10.792C27.892 10.568 27.952 10.4 28.072 10.288C28.2 10.168 28.376 10.108 28.6 10.108H29.104V9.196C29.104 8.892 29.184 8.664 29.344 8.512C29.504 8.352 29.728 8.272 30.016 8.272C30.312 8.272 30.536 8.352 30.688 8.512C30.84 8.664 30.916 8.892 30.916 9.196V10.108H32.056C32.28 10.108 32.452 10.168 32.572 10.288C32.692 10.4 32.752 10.568 32.752 10.792C32.752 11 32.692 11.164 32.572 11.284C32.452 11.404 32.28 11.464 32.056 11.464H30.916V13.648C30.916 13.984 30.992 14.236 31.144 14.404C31.304 14.572 31.556 14.656 31.9 14.656C32.02 14.656 32.132 14.644 32.236 14.62C32.34 14.596 32.436 14.58 32.524 14.572C32.636 14.564 32.728 14.6 32.8 14.68C32.872 14.752 32.908 14.916 32.908 15.172C32.908 15.364 32.876 15.532 32.812 15.676C32.748 15.82 32.636 15.924 32.476 15.988C32.372 16.028 32.228 16.06 32.044 16.084C31.868 16.116 31.716 16.132 31.588 16.132ZM36.321 16.132C35.689 16.132 35.137 16.008 34.665 15.76C34.201 15.512 33.841 15.156 33.585 14.692C33.329 14.228 33.201 13.68 33.201 13.048C33.201 12.576 33.273 12.152 33.417 11.776C33.561 11.4 33.769 11.08 34.041 10.816C34.321 10.544 34.653 10.34 35.037 10.204C35.421 10.06 35.849 9.988 36.321 9.988C36.953 9.988 37.501 10.112 37.965 10.36C38.437 10.608 38.801 10.96 39.057 11.416C39.321 11.872 39.453 12.416 39.453 13.048C39.453 13.528 39.377 13.956 39.225 14.332C39.081 14.708 38.873 15.032 38.601 15.304C38.329 15.576 37.997 15.784 37.605 15.928C37.221 16.064 36.793 16.132 36.321 16.132ZM36.321 14.776C36.585 14.776 36.813 14.712 37.005 14.584C37.197 14.456 37.349 14.268 37.461 14.02C37.573 13.764 37.629 13.44 37.629 13.048C37.629 12.464 37.509 12.036 37.269 11.764C37.029 11.484 36.713 11.344 36.321 11.344C36.065 11.344 35.837 11.404 35.637 11.524C35.445 11.644 35.293 11.832 35.181 12.088C35.077 12.336 35.025 12.656 35.025 13.048C35.025 13.632 35.145 14.068 35.385 14.356C35.625 14.636 35.937 14.776 36.321 14.776ZM42.8474 16.132C42.3354 16.132 41.8834 16.008 41.4914 15.76C41.1074 15.512 40.8074 15.156 40.5914 14.692C40.3754 14.228 40.2674 13.68 40.2674 13.048C40.2674 12.416 40.3754 11.872 40.5914 11.416C40.8074 10.96 41.1074 10.608 41.4914 10.36C41.8834 10.112 42.3354 9.988 42.8474 9.988C43.3114 9.988 43.7194 10.1 44.0714 10.324C44.4314 10.548 44.6754 10.84 44.8034 11.2H44.6714V8.356C44.6714 8.052 44.7474 7.824 44.8994 7.672C45.0514 7.512 45.2754 7.432 45.5714 7.432C45.8594 7.432 46.0834 7.512 46.2434 7.672C46.4034 7.824 46.4834 8.052 46.4834 8.356V15.184C46.4834 15.48 46.4034 15.708 46.2434 15.868C46.0914 16.028 45.8714 16.108 45.5834 16.108C45.2954 16.108 45.0714 16.028 44.9114 15.868C44.7594 15.708 44.6834 15.48 44.6834 15.184V14.368L44.8154 14.836C44.7034 15.228 44.4634 15.544 44.0954 15.784C43.7354 16.016 43.3194 16.132 42.8474 16.132ZM43.3874 14.776C43.6514 14.776 43.8794 14.712 44.0714 14.584C44.2634 14.456 44.4154 14.268 44.5274 14.02C44.6394 13.764 44.6954 13.44 44.6954 13.048C44.6954 12.464 44.5754 12.036 44.3354 11.764C44.0954 11.484 43.7794 11.344 43.3874 11.344C43.1314 11.344 42.9034 11.404 42.7034 11.524C42.5114 11.644 42.3594 11.832 42.2474 12.088C42.1434 12.336 42.0914 12.656 42.0914 13.048C42.0914 13.632 42.2114 14.068 42.4514 14.356C42.6914 14.636 43.0034 14.776 43.3874 14.776ZM50.7116 16.132C50.0796 16.132 49.5276 16.008 49.0556 15.76C48.5916 15.512 48.2316 15.156 47.9756 14.692C47.7196 14.228 47.5916 13.68 47.5916 13.048C47.5916 12.576 47.6636 12.152 47.8076 11.776C47.9516 11.4 48.1596 11.08 48.4316 10.816C48.7116 10.544 49.0436 10.34 49.4276 10.204C49.8116 10.06 50.2396 9.988 50.7116 9.988C51.3436 9.988 51.8916 10.112 52.3556 10.36C52.8276 10.608 53.1916 10.96 53.4476 11.416C53.7116 11.872 53.8436 12.416 53.8436 13.048C53.8436 13.528 53.7676 13.956 53.6156 14.332C53.4716 14.708 53.2636 15.032 52.9916 15.304C52.7196 15.576 52.3876 15.784 51.9956 15.928C51.6116 16.064 51.1836 16.132 50.7116 16.132ZM50.7116 14.776C50.9756 14.776 51.2036 14.712 51.3956 14.584C51.5876 14.456 51.7396 14.268 51.8516 14.02C51.9636 13.764 52.0196 13.44 52.0196 13.048C52.0196 12.464 51.8996 12.036 51.6596 11.764C51.4196 11.484 51.1036 11.344 50.7116 11.344C50.4556 11.344 50.2276 11.404 50.0276 11.524C49.8356 11.644 49.6836 11.832 49.5716 12.088C49.4676 12.336 49.4156 12.656 49.4156 13.048C49.4156 13.632 49.5356 14.068 49.7756 14.356C50.0156 14.636 50.3276 14.776 50.7116 14.776ZM56.938 16.132C56.506 16.132 56.118 16.048 55.774 15.88C55.43 15.712 55.162 15.484 54.97 15.196C54.778 14.908 54.682 14.584 54.682 14.224C54.682 13.792 54.794 13.452 55.018 13.204C55.242 12.948 55.606 12.768 56.11 12.664C56.614 12.552 57.282 12.496 58.114 12.496H58.75V13.432H58.126C57.718 13.432 57.386 13.456 57.13 13.504C56.882 13.544 56.702 13.616 56.59 13.72C56.486 13.824 56.434 13.968 56.434 14.152C56.434 14.376 56.51 14.56 56.662 14.704C56.822 14.848 57.05 14.92 57.346 14.92C57.578 14.92 57.782 14.868 57.958 14.764C58.142 14.652 58.286 14.504 58.39 14.32C58.494 14.128 58.546 13.912 58.546 13.672V12.292C58.546 11.94 58.466 11.692 58.306 11.548C58.146 11.396 57.874 11.32 57.49 11.32C57.274 11.32 57.038 11.348 56.782 11.404C56.534 11.452 56.258 11.536 55.954 11.656C55.778 11.736 55.622 11.756 55.486 11.716C55.35 11.668 55.246 11.588 55.174 11.476C55.102 11.356 55.066 11.228 55.066 11.092C55.066 10.948 55.106 10.812 55.186 10.684C55.266 10.548 55.398 10.448 55.582 10.384C55.958 10.232 56.31 10.128 56.638 10.072C56.974 10.016 57.282 9.988 57.562 9.988C58.178 9.988 58.682 10.08 59.074 10.264C59.474 10.44 59.774 10.716 59.974 11.092C60.174 11.46 60.274 11.936 60.274 12.52V15.184C60.274 15.48 60.202 15.708 60.058 15.868C59.914 16.028 59.706 16.108 59.434 16.108C59.162 16.108 58.95 16.028 58.798 15.868C58.654 15.708 58.582 15.48 58.582 15.184V14.74L58.666 14.812C58.618 15.084 58.514 15.32 58.354 15.52C58.202 15.712 58.006 15.864 57.766 15.976C57.526 16.08 57.25 16.132 56.938 16.132ZM62.5377 18.268C62.2417 18.268 62.0137 18.188 61.8537 18.028C61.7017 17.876 61.6257 17.648 61.6257 17.344V10.924C61.6257 10.628 61.7017 10.404 61.8537 10.252C62.0137 10.092 62.2337 10.012 62.5137 10.012C62.8097 10.012 63.0337 10.092 63.1857 10.252C63.3377 10.404 63.4137 10.628 63.4137 10.924V11.74L63.2817 11.272C63.4017 10.888 63.6417 10.58 64.0017 10.348C64.3697 10.108 64.7897 9.988 65.2617 9.988C65.7737 9.988 66.2217 10.112 66.6057 10.36C66.9977 10.608 67.3017 10.96 67.5177 11.416C67.7337 11.872 67.8417 12.416 67.8417 13.048C67.8417 13.68 67.7337 14.228 67.5177 14.692C67.3017 15.156 67.0017 15.512 66.6177 15.76C66.2337 16.008 65.7817 16.132 65.2617 16.132C64.7977 16.132 64.3857 16.02 64.0257 15.796C63.6657 15.564 63.4217 15.264 63.2937 14.896H63.4377V17.344C63.4377 17.648 63.3577 17.876 63.1977 18.028C63.0457 18.188 62.8257 18.268 62.5377 18.268ZM64.7217 14.776C64.9777 14.776 65.2017 14.712 65.3937 14.584C65.5937 14.456 65.7457 14.268 65.8497 14.02C65.9617 13.764 66.0177 13.44 66.0177 13.048C66.0177 12.464 65.8977 12.036 65.6577 11.764C65.4177 11.484 65.1057 11.344 64.7217 11.344C64.4657 11.344 64.2377 11.404 64.0377 11.524C63.8457 11.644 63.6937 11.832 63.5817 12.088C63.4697 12.336 63.4137 12.656 63.4137 13.048C63.4137 13.632 63.5337 14.068 63.7737 14.356C64.0137 14.636 64.3297 14.776 64.7217 14.776ZM69.8619 18.268C69.5659 18.268 69.3379 18.188 69.1779 18.028C69.0259 17.876 68.9499 17.648 68.9499 17.344V10.924C68.9499 10.628 69.0259 10.404 69.1779 10.252C69.3379 10.092 69.5579 10.012 69.8379 10.012C70.1339 10.012 70.3579 10.092 70.5099 10.252C70.6619 10.404 70.7379 10.628 70.7379 10.924V11.74L70.6059 11.272C70.7259 10.888 70.9659 10.58 71.3259 10.348C71.6939 10.108 72.1139 9.988 72.5859 9.988C73.0979 9.988 73.5459 10.112 73.9299 10.36C74.3219 10.608 74.6259 10.96 74.8419 11.416C75.0579 11.872 75.1659 12.416 75.1659 13.048C75.1659 13.68 75.0579 14.228 74.8419 14.692C74.6259 15.156 74.3259 15.512 73.9419 15.76C73.5579 16.008 73.1059 16.132 72.5859 16.132C72.1219 16.132 71.7099 16.02 71.3499 15.796C70.9899 15.564 70.7459 15.264 70.6179 14.896H70.7619V17.344C70.7619 17.648 70.6819 17.876 70.5219 18.028C70.3699 18.188 70.1499 18.268 69.8619 18.268ZM72.0459 14.776C72.3019 14.776 72.5259 14.712 72.7179 14.584C72.9179 14.456 73.0699 14.268 73.1739 14.02C73.2859 13.764 73.3419 13.44 73.3419 13.048C73.3419 12.464 73.2219 12.036 72.9819 11.764C72.7419 11.484 72.4299 11.344 72.0459 11.344C71.7899 11.344 71.5619 11.404 71.3619 11.524C71.1699 11.644 71.0179 11.832 70.9059 12.088C70.7939 12.336 70.7379 12.656 70.7379 13.048C70.7379 13.632 70.8579 14.068 71.0979 14.356C71.3379 14.636 71.6539 14.776 72.0459 14.776Z" fill="#272424"/>
</svg>
